<?xml version="1.0" encoding="UTF-8" ?>
<!DOCTYPE svg PUBLIC "-//W3C//DTD SVG 1.1//EN" "http://www.w3.org/Graphics/SVG/1.1/DTD/svg11.dtd">
<svg width="280pt" height="280pt" viewBox="0 0 280 280" version="1.1" xmlns="http://www.w3.org/2000/svg">
<g id="#edeeeeff">
</g>
<g id="#0191d3ff">
<path fill="#00b0ff" opacity="1.00" d=" M 115.45 5.51 C 121.15 3.03 124.58 8.39 127.33 12.16 C 131.93 10.35 136.23 7.05 141.44 7.61 C 145.43 9.81 148.52 13.53 152.90 15.07 C 160.66 17.32 168.84 16.40 176.79 16.23 C 177.53 18.14 178.27 20.06 179.03 21.97 C 181.92 21.68 184.78 21.41 187.68 21.14 C 189.11 23.79 190.57 26.44 192.05 29.07 C 196.71 27.58 201.37 26.07 206.06 24.64 C 213.12 31.67 220.46 38.45 226.95 46.04 C 233.63 53.52 238.62 62.31 245.04 69.99 C 250.18 74.11 247.88 81.11 249.44 86.60 C 250.87 101.36 259.31 114.83 257.76 129.95 C 256.93 142.56 255.27 155.12 253.31 167.59 C 249.62 175.12 243.90 181.46 240.19 188.99 C 238.20 196.07 237.68 203.46 236.43 210.69 C 235.80 215.01 231.03 216.64 228.30 219.40 C 215.08 229.78 205.47 244.66 190.17 252.31 C 185.02 255.03 180.08 258.16 174.92 260.87 C 168.62 264.02 161.32 263.85 154.50 262.91 C 147.12 260.58 141.28 266.57 134.64 268.49 C 124.08 271.46 113.28 274.11 102.29 274.60 C 97.45 272.59 93.78 267.72 87.99 268.36 C 76.67 267.42 65.56 265.10 54.38 263.33 C 49.30 260.56 44.70 256.40 41.52 251.54 C 40.35 249.72 41.74 248.26 43.29 247.37 C 54.42 241.07 66.10 235.44 78.63 232.58 C 88.58 231.25 93.76 221.05 103.03 218.14 C 111.18 215.63 119.96 215.31 127.82 211.82 C 138.77 206.83 150.56 202.86 159.62 194.60 C 169.67 185.33 179.28 175.50 187.80 164.79 C 195.75 153.49 193.86 139.01 194.18 126.00 C 194.15 112.94 195.58 98.50 188.13 86.94 C 182.97 78.58 179.34 67.53 169.30 63.83 C 156.44 60.60 142.89 57.23 129.69 60.87 C 121.00 63.45 111.66 64.69 104.12 70.12 C 98.68 74.27 93.62 78.92 88.75 83.71 C 83.41 96.02 82.20 109.72 83.15 122.98 C 84.05 131.21 89.66 138.16 96.18 142.84 C 102.04 142.35 106.99 138.55 112.40 136.51 C 110.41 130.13 107.49 124.11 104.78 118.03 C 110.92 115.35 117.12 112.11 124.03 112.31 C 131.16 112.38 138.59 112.47 145.44 114.71 C 154.28 122.54 158.10 134.28 159.07 145.75 C 161.23 152.99 158.82 160.40 157.15 167.46 C 149.09 176.09 140.56 185.51 128.70 188.64 C 115.03 191.57 101.14 196.72 86.95 194.14 C 78.66 191.86 73.23 184.34 67.51 178.46 C 61.34 171.32 53.40 165.88 47.68 158.35 C 42.08 148.82 37.71 138.36 29.42 130.71 C 21.95 112.53 30.72 91.33 21.77 73.59 C 30.52 67.56 40.29 62.56 46.50 53.57 C 54.10 42.25 65.34 34.20 76.08 26.12 C 88.29 17.83 100.43 7.95 115.45 5.51 Z" />
</g>
</svg>
